<svg xmlns="http://www.w3.org/2000/svg" width="40" height="40" viewBox="0 0 40 40">
  <g>
    <ellipse cx="20" cy="20" fill="rgb(255,255,255)" rx="17" ry="17"/>
    <path fill="rgb(39,110,230)" fill-rule="evenodd" d="M25.80777558 15.17087466c.25629422.2562943.25629422.67245686 0 .92875616l-3.90036983 3.90037106 3.90036983 3.90037105c.25629923.2562943.25629923.67246188 0 .92875617l-.97864987.97865018c-.25629421.2562943-.67245665.2562943-.92875588 0L20 21.90740822l-3.90037484 3.90037106c-.25629422.2562943-.67245665.2562943-.92875087 0l-.97864987-.97865018c-.25629923-.2562943-.25629923-.67246187 0-.92875617l3.90036983-3.90037105-3.90036983-3.90037607c-.25629421-.25629429-.25629421-.67245686 0-.92875115l.97864987-.97865018c.25629422-.2562993.67245665-.2562993.92875588 0L20 18.09259553l3.90036983-3.90037105c.25629923-.2562993.67245665-.2562993.92875588 0l.97864987.97865018z"/>
  </g>
</svg>
