<svg xmlns="http://www.w3.org/2000/svg" xmlns:xlink="http://www.w3.org/1999/xlink" width="180" height="180" viewBox="0 0 180 180">
  <defs>
    <rect id="rect-1" width="180" height="180" x="0" y="0"/>
    <mask id="mask-2" maskContentUnits="userSpaceOnUse" maskUnits="userSpaceOnUse">
      <rect width="180" height="180" x="0" y="0" fill="black"/>
      <use fill="white" xlink:href="#rect-1"/>
    </mask>
  </defs>
  <g>
    <use fill="none" xlink:href="#rect-1"/>
    <g mask="url(#mask-2)">
      <path fill="rgb(0,0,0)" fill-rule="evenodd" d="M47.2121582 73.31974792c.89826966 6.1233368 8.29063416 10.1095276 16.51676178 8.90115357.68763733-.09884644 1.34520722-.24494934 1.99417115-.40824127-3.38365174 2.86373138-6.2170105 6.35510254-8.3238678 10.29782867-11.07748032-1.69857788-20.23237229-10.42700958-21.94382477-22.093544-2.10697556-14.3239212 7.80043793-27.63265992 22.11995697-29.73545456 14.31511688-2.1025734 27.63266754 7.80043792 29.73545837 22.11995697.56764985 3.86179733.24510956 7.64159011-.78691864 11.1590538-4.12368011.2149887-8.06253814 1.14385986-11.69184875 2.66608429 1.69848633-2.17159271 2.54130554-4.70866394 2.16290283-7.2800827L47.2121582 73.31974792zm18.51093293 8.4929123l.00111389-.00093842-.00004578.00067139-.00106811.00026703zm55.6424713-41.6668625C106.96898652 38.632164 94.07724 49.0771103 92.5592041 63.47005463c-.38271332 3.64647675.0129013 7.1897049 1.03202057 10.48358918 11.16345978 1.7845459 20.545784 8.81088257 25.5897522 18.4520111 13.01174164-.2623062 24.10584259-10.16545104 25.49948883-23.44865417 1.51792908-14.40097809-8.9227295-27.29713058-23.31545258-28.81076431l.00054932-.0004387zM68.40312959 52.43030549c2.33924865-.3440094 4.51513672 1.27276993 4.85914612 3.6120224.3440094 2.33924866-1.27277375 4.51513672-3.6120224 4.85914612-2.33924866.3440094-4.51513672-1.27277374-4.85914612-3.6120224-.3440094-2.343544 1.27277374-4.51943207 3.6120224-4.85914612zm37.92903137 4.10775375c.2494049-2.35213089 2.35642242-4.05928802 4.70426178-3.80984115 2.35212707.24510956 4.05928802 2.35213089 3.80984497 4.70426178-.24511719 2.35213089-2.3521347 4.05928802-4.70426178 3.80984115-2.34783936-.24510955-4.05070496-2.35213089-3.80984497-4.70426178zm22.51119232-1.93502807c-2.3521347-.24944687-4.4548645 1.45771026-4.70426178 3.80984115-.24515533 2.34783936 1.45771027 4.45915223 3.8141327 4.70426178 2.3521347.24515534 4.45485686-1.45771026 4.70426177-3.80984115.2451477-2.3521309-1.46200561-4.45486069-3.81413269-4.70426178zm-73.2976303 4.03658295c-.33971024-2.33481598-2.51553727-3.95598221-4.85474778-3.61204148-2.33924866.34402466-3.95612717 2.51991272-3.61642456 4.8591652.3440094 2.33924865 2.51989746 3.95602798 4.85914612 3.6120224 2.33925247-.3440056 3.9560318-2.51989747 3.61202621-4.85914612zM103.1374588 69.5883255c-.64948273 6.15382385 5.52536774 11.85140228 13.79442597 12.7200241v-.00033568c8.26036071.86865997 15.48876953-3.41860962 16.13807678-9.57199097L103.1374588 69.5883255zm-15.55257416 70.40917206c17.00222779.2150116 30.96508026-13.38601685 31.18414307-30.388237.21930695-17.00222778-13.38601685-30.96948242-30.38824463-31.18854523-17.00222778-.21930694-30.96948242 13.38601685-31.18854523 30.38824463-.21930694 17.00662994 13.38601685 30.96948242 30.3926468 31.1885376zM82.6184082 99.35266113c.03445435-2.78211212-2.18447876-5.06549835-4.96229553-5.09989929-2.77781677-.0387497-5.06119537 2.18447113-5.0998993 4.96658325-.03445434 2.7778244 2.18447877 5.061203 4.96659089 5.09561158 2.77781677.03445434 5.061203-2.18447876 5.09560394-4.96229554zm21.03598023.26650238c.030159-2.77781677-2.18876648-5.061203-4.96659088-5.09560394-2.77352143-.03445435-5.05690003 2.18447876-5.09560395 4.96659088-.03445434 2.77781677 2.18876648 5.061203 4.96659088 5.09560394 2.77781678.03445435 5.061203-2.18876647 5.09560395-4.96659088zm1.93073272 15.66924286c-.09460449 7.26719666-8.08852386 13.05908203-17.84986114 12.93467713-9.76551819-.12469483-17.60437775-6.12332917-17.50970459-13.39482117l35.35956573.46014404z"/>
    </g>
  </g>
</svg>
