<svg xmlns="http://www.w3.org/2000/svg" width="64.944" height="50.11" viewBox="0 0 64.944 50.11">
  <path fill="rgb(255,255,255)" fill-rule="evenodd" d="M24.28374672 0c4.5011177.8304205 11.04980278 2.806283 14.5751667 3.98778152 8.95682144 3.08180619 11.99335098 6.90732956 11.99335098 15.53192711 0 8.31981087-5.08475875 11.52532387-11.5881729 8.49938012l-.19750214-.09360505V12.2651558c0-1.83631326-.33594132-3.52729417-2.06284333-4.00471116-1.30783844-.42590904-2.12374878.7775917-2.13993835 2.57987023l-.00024414.05479621v39.21488953l-10.57981682-3.35939407V0zm-2.05272484 28.26676178L7.0651741 33.65500259s-3.66876983 1.20021439-5.83345222 2.80256653c-2.3325826 1.73240662-1.47766471 4.7313614 3.64427376 6.17503357 5.4955864 1.81167984 11.07429695 2.16646958 16.31335258 1.31141663l.52295303-.08408737c.08810425-.01427842.17603302-.0286255.26281167-.04294968l.25590896-.04278946v-5.49930573l-5.23520279 1.8965912c-1.93251037.6945877-4.7671442.84184646-6.3392191.32479476-1.52957343-.49767685-1.28101348-1.45016098.54659081-2.13804245l.11386586-.04177856 10.91396522-3.90851212v-6.14117813zm37.84787369 4.58564758c4.99353027 1.5797844 5.55406952 3.89915467 4.28780365 5.49765015-1.27206421 1.60207748-4.37657166 2.74586868-4.37657166 2.74586868l-23.12242126 8.303936v-6.12026214l17.0171585-6.06755066.11376954-.0417862.1076889-.04159164c1.72803116-.68434524 1.94346237-1.60900116.43721009-2.10015869-1.543396-.50388717-4.32157517-.36673736-6.2477684.29639816L36.8677063 39.3522377v-6.3562851l.86770248-.29131698c.79854966-.2617836 3.75382233-1.16699982 7.66633988-1.60169601 4.60873794-.49998856 10.25157928.0660591 14.6771469 1.74946975z"/>
</svg>
