<svg xmlns="http://www.w3.org/2000/svg" width="124.908" height="26.949" viewBox="0 0 124.908 26.949">
  <path fill="rgb(0,0,0)" fill-rule="evenodd" d="M0 0v3.08942366h29.32336617c2.3370533 0 4.23160743 1.89455413 4.23160743 4.23173046 0 2.33705473-1.89455414 4.23173094-4.23160743 4.23173094H7.2927947C3.26520014 11.55288506 0 14.81796456 0 18.84568024v8.10347366h5.82802582v-8.18402863c0-2.27691268 1.84578228-4.12257194 4.12269497-4.12257194h22.1111269c4.04336166 0 7.3212738-3.27791405 7.32115173-7.32139921C39.38299942 3.2777915 36.10520935 0 32.06184769 0H0zm62.91613388 0c-4.02771378 0-7.29279327 3.26507902-7.29279327 7.29291677V19.7367897c-.00012589 2.2769127-1.84602738 4.12281609-4.12294007 4.12269402H37.46243286v3.08967018H54.1583252c4.02796173-.00012207 7.29304122-3.26520348 7.29304122-7.29304123V7.21211863c0-2.2769127 1.84578324-4.12269497 4.12269211-4.12269497h14.29930878V0H62.91613388zm22.57341385 10.06293488V0h38.36158752v3.08942366H91.31769562v6.62293481c0 1.0164032.82400512 1.84040452 1.84052276 1.84052659h24.0511551c4.2515335 0 7.69813537 3.44659996 7.69813537 7.69825553 0 4.25141144-3.44672394 7.69789124-7.69813538 7.69801331H85.48954773v-3.08967018h28.98110199c2.54521942 0 4.60858917-2.06324196 4.60858917-4.6084652-.00012207-2.54522323-2.06349182-4.6084652-4.60858917-4.6084652H90.06892395c-2.52933502 0-4.5794983-2.0504074-4.57937622-4.57961844z"/>
</svg>
