<svg xmlns="http://www.w3.org/2000/svg" width="124.908" height="26.949" viewBox="0 0 124.908 26.949">
  <path fill="rgb(255,255,255)" fill-rule="evenodd" d="M0 0v3.08942366h29.32336617c2.33705139 0 4.23160362 1.89455413 4.23160362 4.23173046 0 2.33705473-1.89455223 4.23173094-4.23160362 4.23173094H7.29279518C3.26520157 11.55288506 0 14.81796456 0 18.84568024v8.10347366h5.82802582v-8.18402863c0-2.27691268 1.84578323-4.12257194 4.12269592-4.12257194h22.11112213c4.04336548 0 7.3212738-3.27791405 7.32115174-7.32139921C39.3829956 3.2777915 36.10520935 0 32.06184387 0H0zm62.9161377 0c-4.0277176 0-7.2928009 3.26507902-7.2928009 7.29291677V19.7367897c-.00012208 2.2769127-1.84602357 4.12281609-4.12294007 4.12269402H37.46243286v3.08967018H54.1583252c4.02796173-.00012207 7.29304504-3.26520348 7.29304504-7.29304123V7.21211863c0-2.2769127 1.84577942-4.12269497 4.1226883-4.12269497H79.8733673V0H62.9161377zm22.57341003 10.06293488V0h38.36158752v3.08942366H91.31769562v6.62293481c0 1.0164032.82400512 1.84040452 1.84052276 1.84052659h24.05116272c4.25152588 0 7.69812012 3.44659996 7.69812012 7.69825553 0 4.25141144-3.4467163 7.69789124-7.69812012 7.69801331H85.48954773v-3.08967018h28.98109436c2.54522705 0 4.6085968-2.06324196 4.6085968-4.6084652-.00012207-2.54522323-2.06349182-4.6084652-4.6085968-4.6084652H90.06892395c-2.52933502 0-4.5794983-2.0504074-4.57937622-4.57961844z"/>
</svg>
